# xmcd CD database file
# Generated: Mon Apr 21 03:14:27 2003 by KSCD
# 
# Track frame offsets:
#       150
#       14966
#       25689
#       40165
#       51031
#       64783
#       78813
#       94200
#       106809
#       117466
#       133251
#       141374
#
# Disc length: 2142 seconds
#
# Revision: 3
# Processed by: cddbd v1.5.1PL0 Copyright (c) Steve Scherf et al.
# Submitted via: Kscd 1.3.3
#
DISCID=a5085c0c
DTITLE=Lada Kerndl - Evergreens /2/
DYEAR=1900
DGENRE=
TTITLE0=Brazilian Love Song
TTITLE1=Good Morning Heartache
TTITLE2=I'll Never Fall in Love Again
TTITLE3=September in The Rain
TTITLE4=Diana
TTITLE5=If
TTITLE6=My Baby Just Cares For Me
TTITLE7=Since I Fell For You
TTITLE8=Gotta See Baby Tonight
TTITLE9=For The Good Times
TTITLE10=On A Slow Boat To China
TTITLE11=When I Fall in Love
EXTD=
EXTT0=
EXTT1=
EXTT2=
EXTT3=
EXTT4=
EXTT5=
EXTT6=
EXTT7=
EXTT8=
EXTT9=
EXTT10=
EXTT11=
PLAYORDER=
